<svg width="338" height="39" viewBox="0 0 338 39" fill="none" xmlns="http://www.w3.org/2000/svg">
<path d="M18.156 31V8.6H22.444L31.98 24.408H29.708L39.084 8.6H43.34L43.404 31H38.54L38.508 16.056H39.404L31.916 28.632H29.58L21.932 16.056H23.02V31H18.156ZM45.7745 31L55.7585 8.6H60.8785L70.8945 31H65.4545L57.2625 11.224H59.3105L51.0865 31H45.7745ZM50.7665 26.2L52.1425 22.264H63.6625L65.0705 26.2H50.7665ZM73.2185 31V8.6H77.5065L90.7225 24.728H88.6425V8.6H93.7625V31H89.5065L76.2585 14.872H78.3385V31H73.2185ZM96.1182 31L106.102 8.6H111.222L121.238 31H115.798L107.606 11.224H109.654L101.43 31H96.1182ZM101.11 26.2L102.486 22.264H114.006L115.414 26.2H101.11ZM134.066 31.384C132.295 31.384 130.663 31.1067 129.17 30.552C127.698 29.976 126.407 29.1653 125.298 28.12C124.21 27.0747 123.356 25.848 122.738 24.44C122.14 23.032 121.842 21.4853 121.842 19.8C121.842 18.1147 122.14 16.568 122.738 15.16C123.356 13.752 124.22 12.5253 125.33 11.48C126.439 10.4347 127.74 9.63467 129.234 9.08C130.727 8.504 132.37 8.216 134.162 8.216C136.146 8.216 137.927 8.54667 139.506 9.208C141.106 9.86933 142.45 10.8293 143.538 12.088L140.21 15.16C139.399 14.3067 138.514 13.6773 137.554 13.272C136.594 12.8453 135.548 12.632 134.418 12.632C133.33 12.632 132.338 12.8027 131.442 13.144C130.546 13.4853 129.767 13.976 129.106 14.616C128.466 15.256 127.964 16.0133 127.602 16.888C127.26 17.7627 127.09 18.7333 127.09 19.8C127.09 20.8453 127.26 21.8053 127.602 22.68C127.964 23.5547 128.466 24.3227 129.106 24.984C129.767 25.624 130.535 26.1147 131.41 26.456C132.306 26.7973 133.287 26.968 134.354 26.968C135.378 26.968 136.37 26.808 137.33 26.488C138.311 26.1467 139.26 25.5813 140.178 24.792L143.122 28.536C141.906 29.4533 140.487 30.1573 138.866 30.648C137.266 31.1387 135.666 31.384 134.066 31.384ZM138.386 27.864V19.448H143.122V28.536L138.386 27.864ZM152.705 17.624H163.489V21.656H152.705V17.624ZM153.089 26.84H165.281V31H147.937V8.6H164.865V12.76H153.089V26.84ZM189.189 31.384C187.461 31.384 185.85 31.1067 184.357 30.552C182.885 29.976 181.605 29.1653 180.516 28.12C179.429 27.0747 178.575 25.848 177.957 24.44C177.359 23.032 177.061 21.4853 177.061 19.8C177.061 18.1147 177.359 16.568 177.957 15.16C178.575 13.752 179.429 12.5253 180.516 11.48C181.626 10.4347 182.917 9.63467 184.389 9.08C185.861 8.504 187.471 8.216 189.221 8.216C191.162 8.216 192.911 8.55733 194.469 9.24C196.047 9.90133 197.37 10.8827 198.437 12.184L195.109 15.256C194.341 14.3813 193.487 13.7307 192.549 13.304C191.61 12.856 190.586 12.632 189.477 12.632C188.431 12.632 187.471 12.8027 186.597 13.144C185.722 13.4853 184.965 13.976 184.325 14.616C183.685 15.256 183.183 16.0133 182.821 16.888C182.479 17.7627 182.309 18.7333 182.309 19.8C182.309 20.8667 182.479 21.8373 182.821 22.712C183.183 23.5867 183.685 24.344 184.325 24.984C184.965 25.624 185.722 26.1147 186.597 26.456C187.471 26.7973 188.431 26.968 189.477 26.968C190.586 26.968 191.61 26.7547 192.549 26.328C193.487 25.88 194.341 25.208 195.109 24.312L198.437 27.384C197.37 28.6853 196.047 29.6773 194.469 30.36C192.911 31.0427 191.151 31.384 189.189 31.384ZM212.349 31.384C210.578 31.384 208.935 31.096 207.421 30.52C205.927 29.944 204.626 29.1333 203.516 28.088C202.429 27.0427 201.575 25.816 200.957 24.408C200.359 23 200.061 21.464 200.061 19.8C200.061 18.136 200.359 16.6 200.957 15.192C201.575 13.784 202.439 12.5573 203.549 11.512C204.658 10.4667 205.959 9.656 207.453 9.08C208.946 8.504 210.567 8.216 212.317 8.216C214.087 8.216 215.708 8.504 217.181 9.08C218.674 9.656 219.965 10.4667 221.053 11.512C222.162 12.5573 223.026 13.784 223.645 15.192C224.263 16.5787 224.573 18.1147 224.573 19.8C224.573 21.464 224.263 23.0107 223.645 24.44C223.026 25.848 222.162 27.0747 221.053 28.12C219.965 29.144 218.674 29.944 217.181 30.52C215.708 31.096 214.098 31.384 212.349 31.384ZM212.317 26.968C213.319 26.968 214.237 26.7973 215.069 26.456C215.922 26.1147 216.669 25.624 217.309 24.984C217.949 24.344 218.439 23.5867 218.781 22.712C219.143 21.8373 219.325 20.8667 219.325 19.8C219.325 18.7333 219.143 17.7627 218.781 16.888C218.439 16.0133 217.949 15.256 217.309 14.616C216.69 13.976 215.954 13.4853 215.101 13.144C214.247 12.8027 213.319 12.632 212.317 12.632C211.314 12.632 210.386 12.8027 209.533 13.144C208.701 13.4853 207.965 13.976 207.325 14.616C206.685 15.256 206.183 16.0133 205.821 16.888C205.479 17.7627 205.309 18.7333 205.309 19.8C205.309 20.8453 205.479 21.816 205.821 22.712C206.183 23.5867 206.674 24.344 207.293 24.984C207.933 25.624 208.679 26.1147 209.533 26.456C210.386 26.7973 211.314 26.968 212.317 26.968ZM238.421 31.384C235.242 31.384 232.757 30.4987 230.965 28.728C229.173 26.9573 228.277 24.4293 228.277 21.144V8.6H233.461V20.952C233.461 23.0853 233.898 24.6213 234.773 25.56C235.647 26.4987 236.874 26.968 238.453 26.968C240.031 26.968 241.258 26.4987 242.133 25.56C243.007 24.6213 243.444 23.0853 243.444 20.952V8.6H248.565V21.144C248.565 24.4293 247.669 26.9573 245.877 28.728C244.085 30.4987 241.599 31.384 238.421 31.384ZM253.687 31V8.6H263.383C265.389 8.6 267.117 8.93067 268.567 9.592C270.018 10.232 271.138 11.16 271.927 12.376C272.717 13.592 273.111 15.0427 273.111 16.728C273.111 18.392 272.717 19.832 271.927 21.048C271.138 22.2427 270.018 23.16 268.567 23.8C267.117 24.44 265.389 24.76 263.383 24.76H256.567L258.871 22.488V31H253.687ZM267.927 31L262.327 22.872H267.863L273.527 31H267.927ZM258.871 23.064L256.567 20.632H263.095C264.695 20.632 265.89 20.2907 266.679 19.608C267.469 18.904 267.863 17.944 267.863 16.728C267.863 15.4907 267.469 14.5307 266.679 13.848C265.89 13.1653 264.695 12.824 263.095 12.824H256.567L258.871 10.36V23.064ZM284.579 31.384C282.787 31.384 281.069 31.1493 279.427 30.68C277.784 30.1893 276.461 29.56 275.459 28.792L277.219 24.888C278.179 25.5707 279.309 26.136 280.611 26.584C281.933 27.0107 283.267 27.224 284.611 27.224C285.635 27.224 286.456 27.128 287.075 26.936C287.715 26.7227 288.184 26.4347 288.483 26.072C288.781 25.7093 288.931 25.2933 288.931 24.824C288.931 24.2267 288.696 23.7573 288.227 23.416C287.757 23.0533 287.139 22.7653 286.371 22.552C285.603 22.3173 284.749 22.104 283.811 21.912C282.893 21.6987 281.965 21.4427 281.027 21.144C280.109 20.8453 279.267 20.4613 278.499 19.992C277.731 19.5227 277.101 18.904 276.611 18.136C276.141 17.368 275.907 16.3867 275.907 15.192C275.907 13.912 276.248 12.7493 276.931 11.704C277.635 10.6373 278.68 9.79467 280.067 9.176C281.475 8.536 283.235 8.216 285.347 8.216C286.755 8.216 288.141 8.38667 289.507 8.728C290.872 9.048 292.077 9.53867 293.123 10.2L291.523 14.136C290.477 13.5387 289.432 13.1013 288.387 12.824C287.341 12.5253 286.317 12.376 285.315 12.376C284.312 12.376 283.491 12.4933 282.851 12.728C282.211 12.9627 281.752 13.272 281.475 13.656C281.197 14.0187 281.059 14.4453 281.059 14.936C281.059 15.512 281.293 15.9813 281.763 16.344C282.232 16.6853 282.851 16.9627 283.619 17.176C284.387 17.3893 285.229 17.6027 286.147 17.816C287.085 18.0293 288.013 18.2747 288.931 18.552C289.869 18.8293 290.723 19.2027 291.491 19.672C292.259 20.1413 292.877 20.76 293.347 21.528C293.837 22.296 294.083 23.2667 294.083 24.44C294.083 25.6987 293.731 26.8507 293.027 27.896C292.323 28.9413 291.267 29.784 289.859 30.424C288.472 31.064 286.712 31.384 284.579 31.384ZM302.393 17.624H313.177V21.656H302.393V17.624ZM302.777 26.84H314.969V31H297.625V8.6H314.553V12.76H302.777V26.84ZM326.454 31.384C324.662 31.384 322.944 31.1493 321.302 30.68C319.659 30.1893 318.336 29.56 317.334 28.792L319.094 24.888C320.054 25.5707 321.184 26.136 322.486 26.584C323.808 27.0107 325.142 27.224 326.486 27.224C327.51 27.224 328.331 27.128 328.95 26.936C329.59 26.7227 330.059 26.4347 330.358 26.072C330.656 25.7093 330.806 25.2933 330.806 24.824C330.806 24.2267 330.571 23.7573 330.102 23.416C329.632 23.0533 329.014 22.7653 328.246 22.552C327.478 22.3173 326.624 22.104 325.686 21.912C324.768 21.6987 323.84 21.4427 322.902 21.144C321.984 20.8453 321.142 20.4613 320.374 19.992C319.606 19.5227 318.976 18.904 318.486 18.136C318.016 17.368 317.782 16.3867 317.782 15.192C317.782 13.912 318.123 12.7493 318.806 11.704C319.51 10.6373 320.555 9.79467 321.942 9.176C323.35 8.536 325.11 8.216 327.222 8.216C328.63 8.216 330.016 8.38667 331.382 8.728C332.747 9.048 333.952 9.53867 334.998 10.2L333.398 14.136C332.352 13.5387 331.307 13.1013 330.262 12.824C329.216 12.5253 328.192 12.376 327.19 12.376C326.187 12.376 325.366 12.4933 324.726 12.728C324.086 12.9627 323.627 13.272 323.35 13.656C323.072 14.0187 322.934 14.4453 322.934 14.936C322.934 15.512 323.168 15.9813 323.638 16.344C324.107 16.6853 324.726 16.9627 325.494 17.176C326.262 17.3893 327.104 17.6027 328.022 17.816C328.96 18.0293 329.888 18.2747 330.806 18.552C331.744 18.8293 332.598 19.2027 333.366 19.672C334.134 20.1413 334.752 20.76 335.222 21.528C335.712 22.296 335.958 23.2667 335.958 24.44C335.958 25.6987 335.606 26.8507 334.902 27.896C334.198 28.9413 333.142 29.784 331.734 30.424C330.347 31.064 328.587 31.384 326.454 31.384Z" fill="black"/>
<path d="M3 0L3 39" stroke="#F8D442" stroke-width="6"/>
</svg>
